<?xml version="1.0" encoding="UTF-8"?>
<svg width="377px" height="75px" viewBox="0 0 377 75" version="1.1" xmlns="http://www.w3.org/2000/svg" xmlns:xlink="http://www.w3.org/1999/xlink">
    <title>Combined Shape</title>
    <defs>
        <path d="M17.6268506,79.0637557 C21.3473466,79.2553408 28.0369041,79.5736336 32.6678214,81.0050675 C34.9169818,81.7002914 37.6943746,83.236557 41,85.6138645 C38.1383933,87.3898486 35.7937133,88.4632948 33.9659599,88.8342029 C30.7173965,89.4934377 27.3950704,89.9618612 24.3873148,89.9977881 C20.9455954,90.0388987 17.6268506,89.4934377 15.8864892,89.4835208 C7.79391232,89.4374077 -0.393395295,85.9463416 0.0146463891,83.5033442 C0.422688073,81.0603468 7.98039356,78.5670162 17.6268506,79.0637557 Z M85.4892694,80.1696476 C88.1569675,80.9192969 92.7527327,81.9480537 92.9909178,83.6437059 C93.2291029,85.3393581 88.722993,86.2961006 86.4611238,87.0883309 C80.2093588,89.2780409 74.5068946,89.7894371 70.9065466,89.9690347 C67.3731076,90.1452946 62.4503166,89.5795621 57.8096663,88.0023504 C56.6105723,87.5948159 55.0073502,86.8068954 53,85.6385888 C56.3423518,83.4386753 59.0580901,81.9784447 61.1472149,81.2578972 C64.7398248,80.0187916 69.9141638,79.2218964 72.9954589,79.068191 C76.5225879,78.8922458 81.2921564,78.9902176 85.4892694,80.1696476 Z M125,55 L125,58.32 L115,58.32 L115,68.32 L121.68,68.32 L121.68,71.68 L115,71.68 L115,85 L108.32,85 L108.32,55 L125,55 Z M138.32,61.68 L138.32,68.32 L138.371419,67.9351557 C138.817647,64.9023529 138.817647,64.9023529 140.38,63.34 C142.04,61.68 142.04,61.68 145,61.68 L145,61.68 L148.32,61.68 L148.32,68.32 L141.64,68.32 L141.415972,68.3268056 C140.198333,68.4016667 140.198333,68.4016667 139.3,69.3 C138.32,70.28 138.32,70.28 138.32,71.68 L138.32,71.68 L138.32,85 L131.64,85 L131.64,61.68 L138.32,61.68 Z M165,61.68 L165.31737,61.686782 C167.835294,61.7952941 167.835294,61.7952941 169.68,63.64 C171.64,65.6 171.64,65.6 171.64,68.32 L171.64,68.32 L171.64,75 L158.32,75 L158.32,78.32 L158.326806,78.5441667 C158.401667,79.7633333 158.401667,79.7633333 159.3,80.68 C160.28,81.68 160.28,81.68 161.64,81.68 L161.64,81.68 L165,81.68 L165.217644,81.6762667 C168.32,81.568 168.32,81.568 168.32,78.32 L168.32,78.32 L171.64,78.32 L171.60281,78.620186 C170.746364,85 170.746364,85 165,85 L165,85 L158.32,85 L158.002561,84.993218 C155.483529,84.8847059 155.483529,84.8847059 153.62,83.04 C151.64,81.08 151.64,81.08 151.64,78.32 L151.64,78.32 L151.64,68.32 L151.646851,68.0026298 C151.756471,65.4847059 151.756471,65.4847059 153.62,63.64 C155.6,61.68 155.6,61.68 158.32,61.68 L158.32,61.68 L165,61.68 Z M188.32,61.68 L188.596207,61.683279 C194.608889,61.8275556 194.608889,61.8275556 195,68.32 L195,68.32 L191.68,68.32 L191.645663,68.0870918 C191.142857,65 191.142857,65 188.52,65 C186.76,65 186.76,65 185.88,65.7 C185,66.4 185,66.4 185,67.76 C185,69.2 185,69.2 189.84,71.8 C193.8,73.92 193.8,73.92 194.4,75.32 C195,76.72 195,76.72 195,78.32 C195,81.08 195,81.08 193.04,83.04 C191.08,85 191.08,85 188.32,85 L188.32,85 L185,85 L184.718769,84.996976 C178.32,84.8578723 178.32,84.8578723 178.32,78.32 L178.32,78.32 L181.68,78.32 L181.711531,78.5557143 C182.177143,81.68 182.177143,81.68 184.8,81.68 C186.6,81.68 186.6,81.68 187.48,80.98 C188.36,80.28 188.36,80.28 188.36,78.88 C188.36,77.48 188.36,77.48 183.52,74.88 C179.56,72.76 179.56,72.76 178.94,71.36 C178.32,69.96 178.32,69.96 178.32,68.36 C178.32,65.6 178.32,65.6 180.3,63.64 C182.28,61.68 182.28,61.68 185,61.68 L185,61.68 L188.32,61.68 Z M208.32,55 L208.32,65 L208.357778,64.7259722 C208.59,63.2516667 208.59,63.2516667 209.36,62.5 C210.2,61.68 210.2,61.68 211.64,61.68 L211.64,61.68 L215,61.68 L215.31737,61.686782 C217.835294,61.7952941 217.835294,61.7952941 219.68,63.64 C221.64,65.6 221.64,65.6 221.64,68.32 L221.64,68.32 L221.64,85 L215,85 L215,68.32 L214.993194,68.0959722 C214.918333,66.8783333 214.918333,66.8783333 214.02,65.98 C213.04,65 213.04,65 211.64,65 C210.28,65 210.28,65 209.3,65.98 C208.32,66.96 208.32,66.96 208.32,68.32 L208.32,68.32 L208.32,85 L201.64,85 L201.64,55 L208.32,55 Z M255,55 L255,58.32 L245,58.32 L245,68.32 L251.68,68.32 L251.68,71.68 L245,71.68 L245,85 L238.32,85 L238.32,55 L255,55 Z M268.32,61.68 L268.32,78.32 L268.326806,78.5441667 C268.401667,79.7633333 268.401667,79.7633333 269.3,80.68 C270.28,81.68 270.28,81.68 271.64,81.68 C273.04,81.68 273.04,81.68 274.02,80.68 C275,79.68 275,79.68 275,78.32 L275,78.32 L275,61.68 L281.64,61.68 L281.64,85 L275,85 L275,81.68 L274.968163,81.9129082 C274.494286,85 274.494286,85 271.64,85 L271.64,85 L268.32,85 L268.002561,84.993218 C265.483529,84.8847059 265.483529,84.8847059 263.62,83.04 C261.64,81.08 261.64,81.08 261.64,78.32 L261.64,78.32 L261.64,61.68 L268.32,61.68 Z M298.32,55 L298.32,61.68 L301.68,61.68 L301.68,65 L298.32,65 L298.32,78.32 L298.32551,78.5503061 C298.397143,80.0214286 298.397143,80.0214286 299.4,80.82 C300.48,81.68 300.48,81.68 301.36,81.68 L301.36,81.68 L301.68,81.68 L301.68,85 L298.32,85 L298.00263,84.993218 C295.484706,84.8847059 295.484706,84.8847059 293.64,83.04 C291.68,81.08 291.68,81.08 291.68,78.32 L291.68,78.32 L291.68,65 L288.32,65 L288.32,61.68 L291.68,61.68 L291.68,55 L298.32,55 Z M315,61.68 L315,78.32 L315.006806,78.5441667 C315.081667,79.7633333 315.081667,79.7633333 315.98,80.68 C316.96,81.68 316.96,81.68 318.32,81.68 C319.72,81.68 319.72,81.68 320.7,80.68 C321.68,79.68 321.68,79.68 321.68,78.32 L321.68,78.32 L321.68,61.68 L328.32,61.68 L328.32,85 L321.68,85 L321.68,81.68 L321.648163,81.9129082 C321.174286,85 321.174286,85 318.32,85 L318.32,85 L315,85 L314.682561,84.993218 C312.163529,84.8847059 312.163529,84.8847059 310.3,83.04 C308.32,81.08 308.32,81.08 308.32,78.32 L308.32,78.32 L308.32,61.68 L315,61.68 Z M341.68,61.68 L341.68,68.32 L341.731419,67.9351557 C342.177647,64.9023529 342.177647,64.9023529 343.74,63.34 C345.4,61.68 345.4,61.68 348.36,61.68 L348.36,61.68 L351.68,61.68 L351.68,68.32 L345,68.32 L344.775972,68.3268056 C343.558333,68.4016667 343.558333,68.4016667 342.66,69.3 C341.68,70.28 341.68,70.28 341.68,71.68 L341.68,71.68 L341.68,85 L335,85 L335,61.68 L341.68,61.68 Z M368.36,61.68 L368.67737,61.686782 C371.195294,61.7952941 371.195294,61.7952941 373.04,63.64 C375,65.6 375,65.6 375,68.32 L375,68.32 L375,75 L361.68,75 L361.68,78.32 L361.686806,78.5441667 C361.761667,79.7633333 361.761667,79.7633333 362.66,80.68 C363.64,81.68 363.64,81.68 365,81.68 L365,81.68 L368.36,81.68 L368.577644,81.6762667 C371.68,81.568 371.68,81.568 371.68,78.32 L371.68,78.32 L375,78.32 L374.96281,78.620186 C374.106364,85 374.106364,85 368.36,85 L368.36,85 L361.68,85 L361.362561,84.993218 C358.843529,84.8847059 358.843529,84.8847059 356.98,83.04 C355,81.08 355,81.08 355,78.32 L355,78.32 L355,68.32 L355.006851,68.0026298 C355.116471,65.4847059 355.116471,65.4847059 356.98,63.64 C358.96,61.68 358.96,61.68 361.68,61.68 L361.68,61.68 L368.36,61.68 Z M15.5933126,47.4429982 C18.0182798,48.6800724 20.9144452,50.7431554 24.2818088,53.6322471 C30.4893012,59.2851513 34.7101072,63.8045275 36.944227,67.1903759 C38.7864111,69.9822388 40.8422099,73.2111303 42.3913125,78.1116648 C42.6110331,78.8067435 42.8139289,80.1028552 43,82 C39.0263772,80.8260528 36.1702562,79.8216853 34.431637,78.9868975 C27.599454,75.7064651 22.2603852,71.4164466 18.0878402,67.1903759 C13.6229372,62.668197 9.51574623,57.0082386 6.95873976,50.2511485 C6.21403956,48.2832198 3.95923261,44.6051189 5.56361769,44.0833381 C7.16800276,43.5615573 11.9558618,45.5873869 15.5933126,47.4429982 Z M87.7199958,44.2713341 C88.4612378,45.0362756 87.5502285,46.9198205 87.0672008,48.0095963 C84.4234252,53.9743123 81.7102893,58.7167362 78.9577858,62.3422299 C77.6159351,64.1096649 76.173846,65.5932308 74.9092395,66.8607238 L74.2387249,67.5310625 C71.2635877,70.5068886 67.190207,74.4477873 60.5873193,77.9274749 C58.6321794,78.9578235 55.1030729,80.3153318 50,82 C50.7788407,78.2580605 51.2998201,76.0612368 51.5629383,75.4095289 C55.2667829,66.2356092 58.7335697,63.2191148 62.7309814,59.2207773 C65.724448,56.2266175 69.9837859,51.8434825 76.5552308,48.3375332 C78.1555368,47.4837496 80.5624894,46.0476778 84.0679447,44.9144456 C85.1464791,44.5657805 86.9787539,43.5063926 87.7199958,44.2713341 Z M48.6064548,20.2846736 C49.4473733,21.6932877 50.5926652,23.8310676 52.0423306,26.6980134 C53.2332005,30.7069858 54.0117337,34.1926817 54.3779301,37.1551011 C54.7441266,40.1175205 54.9471162,44.5720496 54.9868991,50.5186884 C55.0902182,55.6930106 54.5824255,60.1693799 53.4635208,63.9477961 C52.6482558,66.7008551 51.995432,70.3339038 49.8174477,74.7564456 C49.2766645,75.8545417 48.0897089,77.6023932 46.2565808,80 C45.0547157,78.5150118 43.9569802,76.550085 42.9633743,74.1052195 C42.4231625,72.7759749 41.4814441,71.1857907 40.8082118,69.0940229 C40.4315206,67.9236238 39.9312989,65.8593544 39.3075468,62.9012148 C38.8962666,61.4703531 38.568299,59.3157456 38.3236442,56.4373923 C38.1166286,54.0018625 38.0089245,50.659868 38.0005319,46.4114087 L38.0007053,45.2302636 C38.0015839,44.8290572 38.0032832,44.4203593 38.0058032,44.0041699 C38.4744175,39.4335389 38.908332,36.0462938 39.3075468,33.8424347 C39.7067616,31.6385757 40.4680811,28.9717823 41.5915053,25.8420545 C42.6707579,23.5429651 43.5075635,21.8305605 44.1019219,20.7048407 C44.9934595,19.0162609 45.0990314,17.1143346 46.2565808,17.0063625 C47.4141302,16.8983903 47.3450771,18.1717526 48.6064548,20.2846736 Z M161.64,65 C160.28,65 160.28,65 159.3,65.98 C158.32,66.96 158.32,66.96 158.32,68.32 L158.32,68.32 L158.32,71.68 L165,71.68 L165,68.32 L164.993194,68.0959722 C164.918333,66.8783333 164.918333,66.8783333 164.02,65.98 C163.04,65 163.04,65 161.64,65 Z M365,65 C363.64,65 363.64,65 362.66,65.98 C361.68,66.96 361.68,66.96 361.68,68.32 L361.68,68.32 L361.68,71.68 L368.36,71.68 L368.36,68.32 L368.353194,68.0959722 C368.278333,66.8783333 368.278333,66.8783333 367.38,65.98 C366.4,65 366.4,65 365,65 Z" id="path-1"></path>
        <filter x="-0.7%" y="-3.4%" width="101.4%" height="106.9%" filterUnits="objectBoundingBox" id="filter-2">
            <feGaussianBlur stdDeviation="1.5" in="SourceAlpha" result="shadowBlurInner1"></feGaussianBlur>
            <feOffset dx="0" dy="1" in="shadowBlurInner1" result="shadowOffsetInner1"></feOffset>
            <feComposite in="shadowOffsetInner1" in2="SourceAlpha" operator="arithmetic" k2="-1" k3="1" result="shadowInnerInner1"></feComposite>
            <feColorMatrix values="0 0 0 0 0.284394055   0 0 0 0 1   0 0 0 0 0.302143459  0 0 0 0.484566215 0" type="matrix" in="shadowInnerInner1"></feColorMatrix>
        </filter>
    </defs>
    <g id="Page-1" stroke="none" stroke-width="1" fill="none" fill-rule="evenodd">
        <g id="Desktop" transform="translate(-305.000000, -265.000000)">
            <g id="Combined-Shape" transform="translate(306.000000, 249.000000)">
                <use fill="#6FD009" fill-rule="evenodd" xlink:href="#path-1"></use>
                <use fill="black" fill-opacity="1" filter="url(#filter-2)" xlink:href="#path-1"></use>
                <use stroke="#6FD009" stroke-width="1" xlink:href="#path-1"></use>
            </g>
        </g>
    </g>
</svg>